<?xml version="1.0" encoding="UTF-8" standalone="no"?>
<svg
   width="64"
   height="64"
   version="1.1"
   viewBox="0 0 16.933 16.933"
   id="svg87"
   xmlns="http://www.w3.org/2000/svg"
   xmlns:svg="http://www.w3.org/2000/svg"
   xmlns:rdf="http://www.w3.org/1999/02/22-rdf-syntax-ns#"
   xmlns:cc="http://creativecommons.org/ns#"
   xmlns:dc="http://purl.org/dc/elements/1.1/">
  <defs
     id="defs19">
    <style
       type="text/css"
       id="style2" />
    <linearGradient
       id="linearGradient1064"
       x1="-15.961"
       x2="-.30109"
       y1="-43.254"
       y2="-54.196"
       gradientTransform="matrix(1 0 0 1.1 16.669 62.435)"
       gradientUnits="userSpaceOnUse">
      <stop
         stop-color="#0da760"
         offset="0"
         id="stop4" />
      <stop
         stop-color="#97ff95"
         offset="1"
         id="stop6" />
    </linearGradient>
    <linearGradient
       id="linearGradient1006"
       x1=".52939"
       x2="16.217"
       y1="2.7784"
       y2="14.872"
       gradientTransform="matrix(1,0,0,1.1,16.669,62.435)"
       gradientUnits="userSpaceOnUse">
      <stop
         stop-color="#0da760"
         offset="0"
         id="stop9" />
      <stop
         stop-color="#97ff95"
         offset="1"
         id="stop11" />
    </linearGradient>
    <linearGradient
       id="linearGradient969"
       x1="-16.14"
       x2="-1.0699"
       y1="-55.616"
       y2="-44.835"
       gradientTransform="matrix(1,0,0,1.1,16.669,62.435)"
       gradientUnits="userSpaceOnUse">
      <stop
         stop-color="#0da760"
         offset="0"
         id="stop14" />
      <stop
         stop-color="#97ff95"
         offset="1"
         id="stop16" />
    </linearGradient>
  </defs>
  <metadata
     id="metadata21">
    <rdf:RDF>
      <cc:Work
         rdf:about="">
        <dc:format>image/svg+xml</dc:format>
        <dc:type
           rdf:resource="http://purl.org/dc/dcmitype/StillImage" />
        <dc:title />
      </cc:Work>
    </rdf:RDF>
  </metadata>
  <g
     fill="#5e4aa6"
     stroke-width=".26458"
     id="g69">
    <circle
       cx="-330.35"
       cy="-328.38"
       r="0"
       id="circle23" />
    <circle
       cx="-312.11"
       cy="-326.25"
       r="0"
       id="circle25" />
    <circle
       cx="-306.02"
       cy="-333.07"
       r="0"
       id="circle27" />
    <circle
       cx="-308.84"
       cy="-326.01"
       r="0"
       id="circle29" />
    <circle
       cx="-328.8"
       cy="-330.45"
       r="0"
       id="circle31" />
    <g
       transform="translate(24.108 -4.592)"
       id="g43">
      <circle
         cx="-330.35"
         cy="-328.38"
         r="0"
         id="circle33" />
      <circle
         cx="-312.11"
         cy="-326.25"
         r="0"
         id="circle35" />
      <circle
         cx="-306.02"
         cy="-333.07"
         r="0"
         id="circle37" />
      <circle
         cx="-308.84"
         cy="-326.01"
         r="0"
         id="circle39" />
      <circle
         cx="-328.8"
         cy="-330.45"
         r="0"
         id="circle41" />
    </g>
    <g
       transform="translate(2.3479 -14.944)"
       id="g55">
      <circle
         cx="-330.35"
         cy="-328.38"
         r="0"
         id="circle45" />
      <circle
         cx="-312.11"
         cy="-326.25"
         r="0"
         id="circle47" />
      <circle
         cx="-306.02"
         cy="-333.07"
         r="0"
         id="circle49" />
      <circle
         cx="-308.84"
         cy="-326.01"
         r="0"
         id="circle51" />
      <circle
         cx="-328.8"
         cy="-330.45"
         r="0"
         id="circle53" />
    </g>
    <g
       transform="translate(.000295 -.00036978)"
       id="g67">
      <circle
         cx="-330.35"
         cy="-328.38"
         r="0"
         id="circle57" />
      <circle
         cx="-312.11"
         cy="-326.25"
         r="0"
         id="circle59" />
      <circle
         cx="-306.02"
         cy="-333.07"
         r="0"
         id="circle61" />
      <circle
         cx="-308.84"
         cy="-326.01"
         r="0"
         id="circle63" />
      <circle
         cx="-328.8"
         cy="-330.45"
         r="0"
         id="circle65" />
    </g>
  </g>
  <g
     transform="translate(.000295 -.00036978)"
     id="g79">
    <g
       transform="matrix(1,0,0,1.1,16.669,63.956)"
       fill="url(#linearGradient969)"
       stroke-width=".66145"
       id="g73">
      <path
         d="m-8.2026-51.317h-7.9373v-3.6379c0-0.36531 0.29614-0.66144 0.66144-0.66144h5.6223l1.6536 1.3229z"
         fill="url(#linearGradient969)"
         id="path71" />
    </g>
    <rect
       x=".52939"
       y="4.2333"
       width="15.874"
       height="10.848"
       ry=".79373"
       fill="url(#linearGradient1006)"
       id="rect75" />
    <rect
       x=".97311"
       y="4.6963"
       width="14.987"
       height="9.9217"
       ry=".29919"
       fill="#fffffc"
       id="rect77" />
  </g>
  <rect
     x="2.1165"
     y="7.4914"
     width="12.7"
     height=".26458"
     ry=".13229"
     fill="#dcdcdc"
     stroke-width=".89442"
     id="rect81" />
  <rect
     x="2.1165"
     y="9.1013"
     width="12.7"
     height=".26458"
     ry=".13229"
     fill="#dcdcdc"
     stroke-width=".89442"
     id="rect83" />
  <path
     d="m15.742 10.152h-7.2759l-1.6536 1.4552h-5.6223c-0.36531 0-0.66144 0.32575-0.66144 0.72759v2.0179c0 0.40184 0.29614 0.72759 0.66144 0.72759h14.552c0.36531 0 0.66145-0.32575 0.66145-0.72759v-3.4732c0-0.40184-0.29614-0.72759-0.66145-0.72759z"
     fill="url(#linearGradient1064)"
     stroke-width=".69373"
     id="path85" />
</svg>
