<?xml version="1.0" encoding="UTF-8" standalone="no"?>
<svg
   width="64"
   height="64"
   version="1.1"
   viewBox="0 0 16.933 16.933"
   id="svg56"
   xmlns:xlink="http://www.w3.org/1999/xlink"
   xmlns="http://www.w3.org/2000/svg"
   xmlns:svg="http://www.w3.org/2000/svg"
   xmlns:rdf="http://www.w3.org/1999/02/22-rdf-syntax-ns#"
   xmlns:cc="http://creativecommons.org/ns#"
   xmlns:dc="http://purl.org/dc/elements/1.1/">
  <defs
     id="defs18">
    <linearGradient
       id="linearGradient1064"
       x1="-15.961"
       x2="-.30109"
       y1="-43.254"
       y2="-54.196"
       gradientTransform="matrix(1 0 0 1.1 16.669 62.435)"
       gradientUnits="userSpaceOnUse">
      <stop
         stop-color="#565656"
         offset="0"
         id="stop2" />
      <stop
         stop-color="#767fad"
         offset="1"
         id="stop4" />
    </linearGradient>
    <linearGradient
       id="linearGradient992"
       x1="-16.14"
       x2="-1.0699"
       y1="-55.616"
       y2="-44.835"
       gradientTransform="matrix(1 0 0 1.1 16.669 62.435)"
       gradientUnits="userSpaceOnUse">
      <stop
         stop-color="#565656"
         offset="0"
         id="stop7" />
      <stop
         stop-color="#767fad"
         offset="1"
         id="stop9" />
    </linearGradient>
    <linearGradient
       id="linearGradient1006"
       x1=".52939"
       x2="16.217"
       y1="2.7784"
       y2="14.872"
       gradientTransform="matrix(1,0,0,1.1,16.669,62.435)"
       gradientUnits="userSpaceOnUse">
      <stop
         stop-color="#565656"
         offset="0"
         id="stop12" />
      <stop
         stop-color="#767fad"
         offset="1"
         id="stop14" />
    </linearGradient>
    <linearGradient
       id="linearGradient939"
       x1="-16.14"
       x2="-1.0699"
       y1="-55.616"
       y2="-44.835"
       gradientTransform="matrix(1,0,0,1.1,16.669,62.435)"
       gradientUnits="userSpaceOnUse"
       xlink:href="#linearGradient992" />
  </defs>
  <metadata
     id="metadata20">
    <rdf:RDF>
      <cc:Work
         rdf:about="">
        <dc:format>image/svg+xml</dc:format>
        <dc:type
           rdf:resource="http://purl.org/dc/dcmitype/StillImage" />
      </cc:Work>
    </rdf:RDF>
  </metadata>
  <g
     fill="#5e4aa6"
     stroke-width=".26458"
     id="g30">
    <circle
       cx="-330.35"
       cy="-328.38"
       r="0"
       id="circle22" />
    <circle
       cx="-312.11"
       cy="-326.25"
       r="0"
       id="circle24" />
    <circle
       cx="-306.02"
       cy="-333.07"
       r="0"
       id="circle26" />
    <circle
       cx="-308.84"
       cy="-326.01"
       r="0"
       id="circle28" />
  </g>
  <g
     transform="translate(.000295 -.00032978)"
     fill="#5e4aa6"
     stroke-width=".26458"
     id="g42">
    <circle
       cx="-330.35"
       cy="-328.38"
       r="0"
       id="circle32" />
    <circle
       cx="-312.11"
       cy="-326.25"
       r="0"
       id="circle34" />
    <circle
       cx="-306.02"
       cy="-333.07"
       r="0"
       id="circle36" />
    <circle
       cx="-308.84"
       cy="-326.01"
       r="0"
       id="circle38" />
    <circle
       cx="-328.8"
       cy="-330.45"
       r="0"
       id="circle40" />
  </g>
  <g
     transform="translate(.000295 -.00032978)"
     id="g52">
    <g
       transform="matrix(1,0,0,1.1,16.669,63.956)"
       fill="url(#linearGradient939)"
       stroke-width=".66145"
       id="g46">
      <path
         d="m-8.2026-51.317h-7.9373v-3.6379c0-0.36531 0.29614-0.66144 0.66144-0.66144h5.6223l1.6536 1.3229z"
         fill="url(#linearGradient939)"
         id="path44" />
    </g>
    <rect
       x=".52939"
       y="4.2333"
       width="15.874"
       height="10.848"
       ry=".79373"
       fill="url(#linearGradient1006)"
       id="rect48" />
    <rect
       x=".97311"
       y="4.6963"
       width="14.987"
       height="9.9217"
       ry=".29919"
       fill="#fffffc"
       id="rect50" />
  </g>
  <path
     d="m15.742 4.2329h-7.2759l-1.6536 1.4552h-5.6223c-0.36531 0-0.66144 0.32575-0.66144 0.72759v7.9373c0 0.40184 0.29614 0.72759 0.66144 0.72759h14.552c0.36531 0 0.66145-0.32575 0.66145-0.72759v-9.3926c0-0.40184-0.29614-0.72759-0.66145-0.72759z"
     fill="url(#linearGradient1064)"
     stroke-width=".69373"
     id="path54" />
  <path
     d="m 8.9157517,7.528104 c -0.82735,0 -1.5389,0.47695 -1.8528005,1.1603 -0.16789,-0.13024 -0.37885,-0.20757 -0.60779,-0.20757 -0.53927,0 -0.97802,0.43021 -0.99181,0.96615 -0.55664,0.20877 -0.9529,0.74566 -0.9529,1.3752 0,0.74366 0.55291,1.3582 1.27,1.4551 v 0.01326 h 5.0800008 v -0.0023 c 0.70828,-0.04109 1.27,-0.62845 1.27,-1.347 0,-0.69298 -0.522471,-1.2641 -1.195,-1.3407 0.0029,-0.04225 0.0042,-0.08472 0.0042,-0.12766 -4e-6,-1.074 -0.90616,-1.9447 -2.0240003,-1.9447 z"
     color="#4d4d4d"
     opacity="0.30"
     id="path51" />
</svg>
