<?xml version="1.0" encoding="UTF-8" standalone="no"?>
<svg
   width="64"
   height="64"
   version="1.1"
   viewBox="0 0 16.933 16.933"
   id="svg56"
   xmlns:xlink="http://www.w3.org/1999/xlink"
   xmlns="http://www.w3.org/2000/svg"
   xmlns:svg="http://www.w3.org/2000/svg"
   xmlns:rdf="http://www.w3.org/1999/02/22-rdf-syntax-ns#"
   xmlns:cc="http://creativecommons.org/ns#"
   xmlns:dc="http://purl.org/dc/elements/1.1/">
  <defs
     id="defs18">
    <linearGradient
       id="linearGradient1064"
       x1="-15.961"
       x2="-.30109"
       y1="-43.254"
       y2="-54.196"
       gradientTransform="matrix(1 0 0 1.1 16.669 62.435)"
       gradientUnits="userSpaceOnUse">
      <stop
         stop-color="#e1cc00"
         offset="0"
         id="stop2" />
      <stop
         stop-color="#ffff3c"
         offset="1"
         id="stop4" />
    </linearGradient>
    <linearGradient
       id="linearGradient992"
       x1="-16.14"
       x2="-1.0699"
       y1="-55.616"
       y2="-44.835"
       gradientTransform="matrix(1 0 0 1.1 16.669 62.435)"
       gradientUnits="userSpaceOnUse">
      <stop
         stop-color="#e1cc00"
         offset="0"
         id="stop7" />
      <stop
         stop-color="#ffff3c"
         offset="1"
         id="stop9" />
    </linearGradient>
    <linearGradient
       id="linearGradient1006"
       x1=".52939"
       x2="16.217"
       y1="2.7784"
       y2="14.872"
       gradientTransform="matrix(1,0,0,1.1,16.669,62.435)"
       gradientUnits="userSpaceOnUse">
      <stop
         stop-color="#e1cc00"
         offset="0"
         id="stop12" />
      <stop
         stop-color="#ffff3c"
         offset="1"
         id="stop14" />
    </linearGradient>
    <linearGradient
       id="linearGradient939"
       x1="-16.14"
       x2="-1.0699"
       y1="-55.616"
       y2="-44.835"
       gradientTransform="matrix(1,0,0,1.1,16.669,62.435)"
       gradientUnits="userSpaceOnUse"
       xlink:href="#linearGradient992" />
  </defs>
  <metadata
     id="metadata20">
    <rdf:RDF>
      <cc:Work
         rdf:about="">
        <dc:format>image/svg+xml</dc:format>
        <dc:type
           rdf:resource="http://purl.org/dc/dcmitype/StillImage" />
      </cc:Work>
    </rdf:RDF>
  </metadata>
  <g
     fill="#5e4aa6"
     stroke-width=".26458"
     id="g30">
    <circle
       cx="-330.35"
       cy="-328.38"
       r="0"
       id="circle22" />
    <circle
       cx="-312.11"
       cy="-326.25"
       r="0"
       id="circle24" />
    <circle
       cx="-306.02"
       cy="-333.07"
       r="0"
       id="circle26" />
    <circle
       cx="-308.84"
       cy="-326.01"
       r="0"
       id="circle28" />
  </g>
  <g
     transform="translate(.000295 -.00032978)"
     fill="#5e4aa6"
     stroke-width=".26458"
     id="g42">
    <circle
       cx="-330.35"
       cy="-328.38"
       r="0"
       id="circle32" />
    <circle
       cx="-312.11"
       cy="-326.25"
       r="0"
       id="circle34" />
    <circle
       cx="-306.02"
       cy="-333.07"
       r="0"
       id="circle36" />
    <circle
       cx="-308.84"
       cy="-326.01"
       r="0"
       id="circle38" />
    <circle
       cx="-328.8"
       cy="-330.45"
       r="0"
       id="circle40" />
  </g>
  <g
     transform="translate(.000295 -.00032978)"
     id="g52">
    <g
       transform="matrix(1,0,0,1.1,16.669,63.956)"
       fill="url(#linearGradient939)"
       stroke-width=".66145"
       id="g46">
      <path
         d="m-8.2026-51.317h-7.9373v-3.6379c0-0.36531 0.29614-0.66144 0.66144-0.66144h5.6223l1.6536 1.3229z"
         fill="url(#linearGradient939)"
         id="path44" />
    </g>
    <rect
       x=".52939"
       y="4.2333"
       width="15.874"
       height="10.848"
       ry=".79373"
       fill="url(#linearGradient1006)"
       id="rect48" />
    <rect
       x=".97311"
       y="4.6963"
       width="14.987"
       height="9.9217"
       ry=".29919"
       fill="#fffffc"
       id="rect50" />
  </g>
  <path
     d="m15.742 4.2329h-7.2759l-1.6536 1.4552h-5.6223c-0.36531 0-0.66144 0.32575-0.66144 0.72759v7.9373c0 0.40184 0.29614 0.72759 0.66144 0.72759h14.552c0.36531 0 0.66145-0.32575 0.66145-0.72759v-9.3926c0-0.40184-0.29614-0.72759-0.66145-0.72759z"
     fill="url(#linearGradient1064)"
     stroke-width=".69373"
     id="path54" />
  <g
     transform="matrix(0.26457812,0,0,0.26457812,-0.29016051,1.5269351)"
     opacity="0.15"
     id="g61">
    <g
       id="g57">
      <path
         d="m 42.894,40.418 a 11.92,11.92 0 0 0 0.9707,-1.4863 11.92,11.92 0 0 0 0.22461,-0.51367 h -7.9082 a 4,4 0 0 1 -4,-4 4,4 0 0 1 4,-4 4,4 0 0 1 3.459,2 h 2.1895 a 6,6 0 0 0 -5.6484,-4 6,6 0 0 0 -6,6 6,6 0 0 0 6,6 z"
         id="path51" />
      <path
         d="m 39.565,43.418 a 11.92,11.92 0 0 0 0.33594,-0.18164 11.92,11.92 0 0 0 1.5527,-1.209 11.92,11.92 0 0 0 0.5625,-0.60938 h -5.8359 c -3.866,0 -7,-3.134 -7,-7 0,-3.866 3.134,-7 7,-7 1.0385,0.0032 2.0632,0.23733 3,0.68555 v -2.1602 c -0.96289,-0.34429 -1.9774,-0.52196 -3,-0.52539 -4.9706,0 -9,4.0294 -9,9 0,4.9706 4.0294,9 9,9 z"
         id="path53" />
      <path
         d="m 29.886,44.619 a 11.92,11.92 0 0 0 0.57031,0.19531 11.92,11.92 0 0 0 1.9414,0.32226 11.92,11.92 0 0 0 1.9688,0 11.92,11.92 0 0 0 1.9414,-0.32226 11.92,11.92 0 0 0 1.1523,-0.39648 h -1.2793 a 10,10 0 0 1 -10,-10 10,10 0 0 1 10,-10 v -2 a 12,12 0 0 0 -12,12 12,12 0 0 0 5.7051,10.201 z"
         id="path55" />
    </g>
    <path
       d="m 45.302,33.258 a 11.92,11.92 0 0 1 -23.84,0 11.92,11.92 0 0 1 23.84,0 z"
       fill="none"
       stroke="#000000"
       stroke-width="1.25"
       id="path59" />
  </g>
</svg>
