<?xml version="1.0" encoding="UTF-8" standalone="no"?>
<svg
   width="64"
   height="64"
   version="1.1"
   viewBox="0 0 16.933 16.933"
   id="svg56"
   xmlns:xlink="http://www.w3.org/1999/xlink"
   xmlns="http://www.w3.org/2000/svg"
   xmlns:svg="http://www.w3.org/2000/svg"
   xmlns:rdf="http://www.w3.org/1999/02/22-rdf-syntax-ns#"
   xmlns:cc="http://creativecommons.org/ns#"
   xmlns:dc="http://purl.org/dc/elements/1.1/">
  <defs
     id="defs18">
    <linearGradient
       id="linearGradient1064"
       x1="-15.961"
       x2="-.30109"
       y1="-43.254"
       y2="-54.196"
       gradientTransform="matrix(1 0 0 1.1 16.669 62.435)"
       gradientUnits="userSpaceOnUse">
      <stop
         stop-color="#ffc074"
         offset="0"
         id="stop2" />
      <stop
         stop-color="#ffce36"
         offset="1"
         id="stop4" />
    </linearGradient>
    <linearGradient
       id="linearGradient992"
       x1="-16.14"
       x2="-1.0699"
       y1="-55.616"
       y2="-44.835"
       gradientTransform="matrix(1 0 0 1.1 16.669 62.435)"
       gradientUnits="userSpaceOnUse">
      <stop
         stop-color="#ffc074"
         offset="0"
         id="stop7" />
      <stop
         stop-color="#ffce36"
         offset="1"
         id="stop9" />
    </linearGradient>
    <linearGradient
       id="linearGradient1006"
       x1=".52939"
       x2="16.217"
       y1="2.7784"
       y2="14.872"
       gradientTransform="matrix(1,0,0,1.1,16.669,62.435)"
       gradientUnits="userSpaceOnUse">
      <stop
         stop-color="#ffc074"
         offset="0"
         id="stop12" />
      <stop
         stop-color="#ffce36"
         offset="1"
         id="stop14" />
    </linearGradient>
    <linearGradient
       id="linearGradient939"
       x1="-16.14"
       x2="-1.0699"
       y1="-55.616"
       y2="-44.835"
       gradientTransform="matrix(1,0,0,1.1,16.669,62.435)"
       gradientUnits="userSpaceOnUse"
       xlink:href="#linearGradient992" />
  </defs>
  <metadata
     id="metadata20">
    <rdf:RDF>
      <cc:Work
         rdf:about="">
        <dc:format>image/svg+xml</dc:format>
        <dc:type
           rdf:resource="http://purl.org/dc/dcmitype/StillImage" />
      </cc:Work>
    </rdf:RDF>
  </metadata>
  <g
     fill="#5e4aa6"
     stroke-width=".26458"
     id="g30">
    <circle
       cx="-330.35"
       cy="-328.38"
       r="0"
       id="circle22" />
    <circle
       cx="-312.11"
       cy="-326.25"
       r="0"
       id="circle24" />
    <circle
       cx="-306.02"
       cy="-333.07"
       r="0"
       id="circle26" />
    <circle
       cx="-308.84"
       cy="-326.01"
       r="0"
       id="circle28" />
  </g>
  <g
     transform="translate(.000295 -.00032978)"
     fill="#5e4aa6"
     stroke-width=".26458"
     id="g42">
    <circle
       cx="-330.35"
       cy="-328.38"
       r="0"
       id="circle32" />
    <circle
       cx="-312.11"
       cy="-326.25"
       r="0"
       id="circle34" />
    <circle
       cx="-306.02"
       cy="-333.07"
       r="0"
       id="circle36" />
    <circle
       cx="-308.84"
       cy="-326.01"
       r="0"
       id="circle38" />
    <circle
       cx="-328.8"
       cy="-330.45"
       r="0"
       id="circle40" />
  </g>
  <g
     transform="translate(.000295 -.00032978)"
     id="g52">
    <g
       transform="matrix(1,0,0,1.1,16.669,63.956)"
       fill="url(#linearGradient939)"
       stroke-width=".66145"
       id="g46">
      <path
         d="m-8.2026-51.317h-7.9373v-3.6379c0-0.36531 0.29614-0.66144 0.66144-0.66144h5.6223l1.6536 1.3229z"
         fill="url(#linearGradient939)"
         id="path44" />
    </g>
    <rect
       x=".52939"
       y="4.2333"
       width="15.874"
       height="10.848"
       ry=".79373"
       fill="url(#linearGradient1006)"
       id="rect48" />
    <rect
       x=".97311"
       y="4.6963"
       width="14.987"
       height="9.9217"
       ry=".29919"
       fill="#fffffc"
       id="rect50" />
  </g>
  <path
     d="m15.742 4.2329h-7.2759l-1.6536 1.4552h-5.6223c-0.36531 0-0.66144 0.32575-0.66144 0.72759v7.9373c0 0.40184 0.29614 0.72759 0.66144 0.72759h14.552c0.36531 0 0.66145-0.32575 0.66145-0.72759v-9.3926c0-0.40184-0.29614-0.72759-0.66145-0.72759z"
     fill="url(#linearGradient1064)"
     stroke-width=".69373"
     id="path54" />
  <path
     class="cls-1"
     d="m 7.7813385,10.123517 -0.212658,0.212658 V 9.9138021 Z M 11.030886,8.4626811 h 0.01582 a 0.14704458,0.14704458 0 0 1 0.113065,0.053313 c 0.663747,0.6877709 1.015239,2.1810239 0.939093,3.1804929 a 2.0017981,2.0017981 0 0 1 -0.16579,0.702984 c -0.101936,0.209726 -0.248976,0.347391 -0.445814,0.383718 -0.250738,0.04628 -0.56416,-0.08611 -0.94084,-0.468674 -0.04862,-0.04921 -0.09901,-0.09901 -0.150558,-0.149972 A 4.3650098,4.3650098 0 0 1 9.8785595,11.589852 h -2.736796 a 4.2800802,4.2800802 0 0 1 -0.518467,0.576462 c -0.05097,0.05038 -0.10135,0.09959 -0.149387,0.148214 -0.376679,0.383718 -0.690099,0.516113 -0.940839,0.468674 -0.196839,-0.03456 -0.344481,-0.174577 -0.446423,-0.381971 a 2.0047084,2.0047084 0 0 1 -0.16579,-0.702984 c -0.07733,-1.005847 0.277093,-2.50783 0.950788,-3.1902828 a 0.14528514,0.14528514 0 0 1 0.104278,-0.043936 h 0.0164 c 0.415361,-0.5717797 1.347391,-0.5776269 1.762752,0 h 0.463382 c -0.03574,-0.8763885 0.207384,-1.0960677 0.566488,-1.1207 a 1.8219378,1.8219378 0 0 1 0.41007,0.038078 c 0.272409,0.045108 0.574108,0.094904 0.78794,-0.1171657 a 0.14528514,0.14528514 0 0 1 0.2073835,0 0.14645722,0.14645722 0 0 1 0,0.2073842 C 9.8698835,7.7914729 9.4873565,7.7287917 9.1475585,7.6719788 a 1.6309654,1.6309654 0 0 0 -0.345062,-0.034562 c -0.19391,0.012888 -0.322786,0.1757487 -0.292915,0.8272035 h 0.756297 c 0.414197,-0.573526 1.3474165,-0.5752987 1.7627505,0 z M 7.2066745,9.386535 v 0.3901471 h 0.390147 c 0.441713,0 0.441713,0.6678209 0,0.6678209 h -0.390147 v 0.390147 c 0,0.441714 -0.667822,0.441714 -0.667822,0 v -0.389564 h -0.390146 c -0.441714,0 -0.441714,-0.6678219 0,-0.6678219 h 0.390146 V 9.386535 c 0,-0.4417131 0.667822,-0.4417131 0.667822,0 z M 10.257524,9.0467373 a 0.30815414,0.30815414 0 1 1 -0.4358385,0 0.30757206,0.30757206 0 0 1 0.4358385,0 z m 0,1.3438717 a 0.30815414,0.30815414 0 1 1 -0.4358385,0 0.30757206,0.30757206 0 0 1 0.4358385,0 z m 0.739337,-0.7029839 a 0.30815414,0.30815414 0 1 1 -0.435839,0 0.30873621,0.30873621 0 0 1 0.435839,0 z m -1.4792025,0 a 0.30815414,0.30815414 0 1 1 -0.435839,0 0.30757206,0.30757206 0 0 1 0.435839,0 z M 6.8814285,9.225989 7.0940865,9.4386463 H 6.6711315 L 6.8837885,9.225989 Z m -0.893374,0.897502 0.211485,0.212657 V 9.9137761 l -0.212657,0.2126569 z m 0.895729,0.895147 0.212657,-0.212657 h -0.425309 z"
     fill-rule="evenodd"
     opacity="0.15"
     stroke-width="0.0660387"
     id="path1149" />
</svg>
