<?xml version="1.0" encoding="UTF-8" standalone="no"?>
<svg
   width="64"
   height="64"
   version="1.1"
   viewBox="0 0 16.933 16.933"
   id="svg56"
   xmlns:xlink="http://www.w3.org/1999/xlink"
   xmlns="http://www.w3.org/2000/svg"
   xmlns:svg="http://www.w3.org/2000/svg"
   xmlns:rdf="http://www.w3.org/1999/02/22-rdf-syntax-ns#"
   xmlns:cc="http://creativecommons.org/ns#"
   xmlns:dc="http://purl.org/dc/elements/1.1/">
  <defs
     id="defs18">
    <linearGradient
       id="linearGradient1064"
       x1="-15.961"
       x2="-.30109"
       y1="-43.254"
       y2="-54.196"
       gradientTransform="matrix(1 0 0 1.1 16.669 62.435)"
       gradientUnits="userSpaceOnUse">
      <stop
         stop-color="#ff4fbc"
         offset="0"
         id="stop2" />
      <stop
         stop-color="#ffabf3"
         offset="1"
         id="stop4" />
    </linearGradient>
    <linearGradient
       id="linearGradient992"
       x1="-16.14"
       x2="-1.0699"
       y1="-55.616"
       y2="-44.835"
       gradientTransform="matrix(1 0 0 1.1 16.669 62.435)"
       gradientUnits="userSpaceOnUse">
      <stop
         stop-color="#ff4fbc"
         offset="0"
         id="stop7" />
      <stop
         stop-color="#ffabf3"
         offset="1"
         id="stop9" />
    </linearGradient>
    <linearGradient
       id="linearGradient1006"
       x1=".52939"
       x2="16.217"
       y1="2.7784"
       y2="14.872"
       gradientTransform="matrix(1,0,0,1.1,16.669,62.435)"
       gradientUnits="userSpaceOnUse">
      <stop
         stop-color="#ff4fbc"
         offset="0"
         id="stop12" />
      <stop
         stop-color="#ffabf3"
         offset="1"
         id="stop14" />
    </linearGradient>
    <linearGradient
       id="linearGradient939"
       x1="-16.14"
       x2="-1.0699"
       y1="-55.616"
       y2="-44.835"
       gradientTransform="matrix(1,0,0,1.1,16.669,62.435)"
       gradientUnits="userSpaceOnUse"
       xlink:href="#linearGradient992" />
  </defs>
  <metadata
     id="metadata20">
    <rdf:RDF>
      <cc:Work
         rdf:about="">
        <dc:format>image/svg+xml</dc:format>
        <dc:type
           rdf:resource="http://purl.org/dc/dcmitype/StillImage" />
      </cc:Work>
    </rdf:RDF>
  </metadata>
  <g
     fill="#5e4aa6"
     stroke-width=".26458"
     id="g30">
    <circle
       cx="-330.35"
       cy="-328.38"
       r="0"
       id="circle22" />
    <circle
       cx="-312.11"
       cy="-326.25"
       r="0"
       id="circle24" />
    <circle
       cx="-306.02"
       cy="-333.07"
       r="0"
       id="circle26" />
    <circle
       cx="-308.84"
       cy="-326.01"
       r="0"
       id="circle28" />
  </g>
  <g
     transform="translate(.000295 -.00032978)"
     fill="#5e4aa6"
     stroke-width=".26458"
     id="g42">
    <circle
       cx="-330.35"
       cy="-328.38"
       r="0"
       id="circle32" />
    <circle
       cx="-312.11"
       cy="-326.25"
       r="0"
       id="circle34" />
    <circle
       cx="-306.02"
       cy="-333.07"
       r="0"
       id="circle36" />
    <circle
       cx="-308.84"
       cy="-326.01"
       r="0"
       id="circle38" />
    <circle
       cx="-328.8"
       cy="-330.45"
       r="0"
       id="circle40" />
  </g>
  <g
     transform="translate(.000295 -.00032978)"
     id="g52">
    <g
       transform="matrix(1,0,0,1.1,16.669,63.956)"
       fill="url(#linearGradient939)"
       stroke-width=".66145"
       id="g46">
      <path
         d="m-8.2026-51.317h-7.9373v-3.6379c0-0.36531 0.29614-0.66144 0.66144-0.66144h5.6223l1.6536 1.3229z"
         fill="url(#linearGradient939)"
         id="path44" />
    </g>
    <rect
       x=".52939"
       y="4.2333"
       width="15.874"
       height="10.848"
       ry=".79373"
       fill="url(#linearGradient1006)"
       id="rect48" />
    <rect
       x=".97311"
       y="4.6963"
       width="14.987"
       height="9.9217"
       ry=".29919"
       fill="#fffffc"
       id="rect50" />
  </g>
  <path
     d="m15.742 4.2329h-7.2759l-1.6536 1.4552h-5.6223c-0.36531 0-0.66144 0.32575-0.66144 0.72759v7.9373c0 0.40184 0.29614 0.72759 0.66144 0.72759h14.552c0.36531 0 0.66145-0.32575 0.66145-0.72759v-9.3926c0-0.40184-0.29614-0.72759-0.66145-0.72759z"
     fill="url(#linearGradient1064)"
     stroke-width=".69373"
     id="path54" />
  <path
     class="st0"
     d="m 11.203802,11.099211 0.189771,0.189772 c 0.04994,0.04994 0.04994,0.129844 0,0.179783 l -0.154813,0.154813 c 0.03995,0.0799 0.07491,0.1648 0.09489,0.254693 h 0.199759 c 0.06992,0 0.129845,0.05993 0.129845,0.129845 v 0.269684 c 0,0.06991 -0.05993,0.129844 -0.129845,0.129844 H 11.31867 c -0.02497,0.0849 -0.06492,0.169796 -0.109869,0.244703 l 0.139832,0.139833 c 0.04994,0.04994 0.04994,0.129844 0,0.179783 l -0.189771,0.189771 c -0.04994,0.04994 -0.129844,0.04994 -0.179784,0 l -0.154812,-0.154812 c -0.0799,0.03995 -0.164801,0.07491 -0.254694,0.09488 v 0.19976 c 0,0.06991 -0.05993,0.129844 -0.129844,0.129844 h -0.269684 c -0.06992,0 -0.129845,-0.05993 -0.129845,-0.129844 v -0.219735 c -0.0849,-0.02497 -0.1697957,-0.06492 -0.2447057,-0.109866 l -0.139832,0.139832 c -0.04994,0.04994 -0.129844,0.04994 -0.179783,0 l -0.189775,-0.189766 c -0.04994,-0.04994 -0.04994,-0.129845 0,-0.179784 l 0.154812,-0.154812 c -0.03995,-0.0799 -0.07491,-0.164801 -0.09489,-0.254694 h -0.199759 c -0.06991,0 -0.129844,-0.05993 -0.129844,-0.129844 v -0.269685 c 0,-0.06991 0.05993,-0.129844 0.129844,-0.129844 h 0.214743 c 0.02497,-0.0849 0.06492,-0.169796 0.109866,-0.244706 l -0.134837,-0.134837 c -0.04994,-0.04994 -0.04994,-0.129844 0,-0.179783 l 0.189775,-0.189772 c 0.04994,-0.04994 0.129844,-0.04994 0.179783,0 l 0.154813,0.154813 c 0.0799,-0.03995 0.1647997,-0.07491 0.2546937,-0.09489 v -0.199759 c 0,-0.06991 0.05993,-0.129844 0.129844,-0.129844 h 0.269684 c 0.06992,0 0.129845,0.05993 0.129845,0.129844 v 0.21474 c 0.0849,0.02497 0.169795,0.06492 0.244705,0.109869 l 0.13983,-0.139833 c 0.03995,-0.04994 0.124849,-0.04994 0.174788,0 z m -3.1961037,0.294635 c -0.06991,0 -0.124849,-0.06991 -0.124849,-0.14982 0,-0.0849 0.05493,-0.14982 0.124849,-0.14982 h 0.619245 c 0.06992,0 0.124849,0.06991 0.124849,0.14982 0,0.0849 -0.05493,0.14982 -0.124849,0.14982 z m 0.184776,1.503174 c 0.0849,0 0.14982,0.06991 0.14982,0.14982 0,0.0849 -0.06992,0.14982 -0.14982,0.14982 h -1.897713 c -0.09489,0 -0.184776,-0.03995 -0.249698,-0.104874 -0.06492,-0.06492 -0.104874,-0.14982 -0.104874,-0.249698 V 7.6433929 c 0,-0.099878 0.03995,-0.1847761 0.104874,-0.2496982 0.06492,-0.064922 0.14982,-0.1048735 0.249698,-0.1048735 h 4.3298207 c 0.09489,0 0.184776,0.039951 0.249698,0.1048735 0.06492,0.064922 0.104874,0.14982 0.104874,0.2496982 v 2.4120791 c 0,0.0849 -0.06991,0.14982 -0.14982,0.14982 -0.0849,0 -0.14982,-0.06991 -0.14982,-0.14982 V 7.6433929 c 0,-0.014983 -0.005,-0.024971 -0.01498,-0.034959 -0.01,-0.00999 -0.01998,-0.014983 -0.03496,-0.014983 H 6.2947263 c -0.01498,0 -0.02497,0.00499 -0.03496,0.014983 -0.01,0.00499 -0.01498,0.019976 -0.01498,0.034959 v 5.2087491 c 0,0.01498 0.005,0.02497 0.01498,0.03496 0.01,0.01 0.01998,0.01498 0.03496,0.01498 h 1.897713 z m -1.313419,-1.907688 h 0.534342 c 0.02996,0 0.04994,0.01998 0.04994,0.04994 v 0.45944 c 0,0.02996 -0.01998,0.04994 -0.04994,0.04994 h -0.534342 c -0.02996,0 -0.04994,-0.01998 -0.04994,-0.04994 v -0.45944 c 0,-0.02996 0.01998,-0.04994 0.04994,-0.04994 z m 0,-2.6418121 h 0.534342 c 0.02996,0 0.04994,0.019976 0.04994,0.049939 v 0.4594399 c 0,0.029963 -0.01998,0.049939 -0.04994,0.049939 h -0.534342 c -0.02996,0 -0.04994,-0.019976 -0.04994,-0.049939 V 8.3974591 c 0,-0.029963 0.01998,-0.049939 0.04994,-0.049939 z m 1.128638,0.4045135 c -0.06992,0 -0.124849,-0.069915 -0.124849,-0.14982 0,-0.084898 0.05493,-0.14982 0.124849,-0.14982 h 1.732907 c 0.06991,0 0.124849,0.069915 0.124849,0.14982 0,0.084898 -0.05493,0.14982 -0.124849,0.14982 z m -0.973833,1.4032956 c -0.03496,0.02497 -0.0799,0.01998 -0.114861,-0.01498 -0.005,-0.005 -0.005,-0.005 -0.01,-0.01 L 6.7492033,9.9655607 c -0.03496,-0.034959 -0.02497,-0.08989 0.01498,-0.1298444 0.04495,-0.034959 0.104874,-0.039951 0.139832,-0.00499 l 0.0849,0.08989 0.279659,-0.2247273 c 0.03496,-0.029963 0.09489,-0.014983 0.124849,0.029963 0.03496,0.044947 0.02996,0.1098688 -0.01,0.1398322 z m 0.88893,-0.129844 c -0.06992,0 -0.124849,-0.069915 -0.124849,-0.14982 0,-0.084898 0.05493,-0.14982 0.124849,-0.14982 h 1.732907 c 0.06991,0 0.124849,0.069915 0.124849,0.14982 0,0.084898 -0.05493,0.14982 -0.124849,0.14982 z m 2.4170797,1.553126 c 0.28966,0 0.529367,0.234715 0.529367,0.529368 0,0.28966 -0.234717,0.529368 -0.529367,0.529368 -0.289661,0 -0.5293677,-0.234718 -0.5293677,-0.529368 0,-0.29465 0.2397097,-0.529368 0.5293677,-0.529368 z"
     opacity="0.30"
     stroke-width="0.0499391"
     id="path53"
     style="clip-rule:evenodd;fill-rule:evenodd" />
</svg>
