<?xml version="1.0" encoding="UTF-8" standalone="no"?>
<svg
   width="64"
   height="64"
   version="1.1"
   viewBox="0 0 16.933 16.933"
   id="svg56"
   xmlns:xlink="http://www.w3.org/1999/xlink"
   xmlns="http://www.w3.org/2000/svg"
   xmlns:svg="http://www.w3.org/2000/svg"
   xmlns:rdf="http://www.w3.org/1999/02/22-rdf-syntax-ns#"
   xmlns:cc="http://creativecommons.org/ns#"
   xmlns:dc="http://purl.org/dc/elements/1.1/">
  <defs
     id="defs18">
    <linearGradient
       id="linearGradient1064"
       x1="-15.961"
       x2="-.30109"
       y1="-43.254"
       y2="-54.196"
       gradientTransform="matrix(1 0 0 1.1 16.669 62.435)"
       gradientUnits="userSpaceOnUse">
      <stop
         stop-color="#005ae1"
         offset="0"
         id="stop2" />
      <stop
         stop-color="#228be6"
         offset="1"
         id="stop4" />
    </linearGradient>
    <linearGradient
       id="linearGradient992"
       x1="-16.14"
       x2="-1.0699"
       y1="-55.616"
       y2="-44.835"
       gradientTransform="matrix(1 0 0 1.1 16.669 62.435)"
       gradientUnits="userSpaceOnUse">
      <stop
         stop-color="#005ae1"
         offset="0"
         id="stop7" />
      <stop
         stop-color="#228be6"
         offset="1"
         id="stop9" />
    </linearGradient>
    <linearGradient
       id="linearGradient1006"
       x1=".52939"
       x2="16.217"
       y1="2.7784"
       y2="14.872"
       gradientTransform="matrix(1,0,0,1.1,16.669,62.435)"
       gradientUnits="userSpaceOnUse">
      <stop
         stop-color="#005ae1"
         offset="0"
         id="stop12" />
      <stop
         stop-color="#228be6"
         offset="1"
         id="stop14" />
    </linearGradient>
    <linearGradient
       id="linearGradient939"
       x1="-16.14"
       x2="-1.0699"
       y1="-55.616"
       y2="-44.835"
       gradientTransform="matrix(1,0,0,1.1,16.669,62.435)"
       gradientUnits="userSpaceOnUse"
       xlink:href="#linearGradient992" />
  </defs>
  <metadata
     id="metadata20">
    <rdf:RDF>
      <cc:Work
         rdf:about="">
        <dc:format>image/svg+xml</dc:format>
        <dc:type
           rdf:resource="http://purl.org/dc/dcmitype/StillImage" />
      </cc:Work>
    </rdf:RDF>
  </metadata>
  <g
     fill="#5e4aa6"
     stroke-width=".26458"
     id="g30">
    <circle
       cx="-330.35"
       cy="-328.38"
       r="0"
       id="circle22" />
    <circle
       cx="-312.11"
       cy="-326.25"
       r="0"
       id="circle24" />
    <circle
       cx="-306.02"
       cy="-333.07"
       r="0"
       id="circle26" />
    <circle
       cx="-308.84"
       cy="-326.01"
       r="0"
       id="circle28" />
  </g>
  <g
     transform="translate(.000295 -.00032978)"
     fill="#5e4aa6"
     stroke-width=".26458"
     id="g42">
    <circle
       cx="-330.35"
       cy="-328.38"
       r="0"
       id="circle32" />
    <circle
       cx="-312.11"
       cy="-326.25"
       r="0"
       id="circle34" />
    <circle
       cx="-306.02"
       cy="-333.07"
       r="0"
       id="circle36" />
    <circle
       cx="-308.84"
       cy="-326.01"
       r="0"
       id="circle38" />
    <circle
       cx="-328.8"
       cy="-330.45"
       r="0"
       id="circle40" />
  </g>
  <g
     transform="translate(.000295 -.00032978)"
     id="g52">
    <g
       transform="matrix(1,0,0,1.1,16.669,63.956)"
       fill="url(#linearGradient939)"
       stroke-width=".66145"
       id="g46">
      <path
         d="m-8.2026-51.317h-7.9373v-3.6379c0-0.36531 0.29614-0.66144 0.66144-0.66144h5.6223l1.6536 1.3229z"
         fill="url(#linearGradient939)"
         id="path44" />
    </g>
    <rect
       x=".52939"
       y="4.2333"
       width="15.874"
       height="10.848"
       ry=".79373"
       fill="url(#linearGradient1006)"
       id="rect48" />
    <rect
       x=".97311"
       y="4.6963"
       width="14.987"
       height="9.9217"
       ry=".29919"
       fill="#fffffc"
       id="rect50" />
  </g>
  <path
     d="m15.742 4.2329h-7.2759l-1.6536 1.4552h-5.6223c-0.36531 0-0.66144 0.32575-0.66144 0.72759v7.9373c0 0.40184 0.29614 0.72759 0.66144 0.72759h14.552c0.36531 0 0.66145-0.32575 0.66145-0.72759v-9.3926c0-0.40184-0.29614-0.72759-0.66145-0.72759z"
     fill="url(#linearGradient1064)"
     stroke-width=".69373"
     id="path54" />
  <path
     class="ColorScheme-Text"
     d="m 8.457395,7.1093622 a 3.1749374,3.1749374 0 0 0 -0.06046,0.00233 l -7.4e-4,8.202e-4 a 3.1749374,3.1749374 0 0 0 -0.01395,7.673e-4 3.2421403,3.2421403 0 0 0 -0.01163,-7.673e-4 3.1749374,3.1749374 0 0 0 -0.03876,0.00309 3.1749374,3.1749374 0 0 0 -0.267409,0.020926 3.1749374,3.1749374 0 0 0 -0.04031,0.0062 3.1749374,3.1749374 0 0 0 -0.263541,0.047283 3.1749374,3.1749374 0 0 0 -0.06278,0.015502 3.1749374,3.1749374 0 0 0 -0.251918,0.072859 3.1749374,3.1749374 0 0 0 -0.03023,0.01085 3.1749374,3.1749374 0 0 0 -0.272066,0.1077388 3.1749374,3.1749374 0 0 0 -0.0062,0.0031 3.1749374,3.1749374 0 0 0 -0.273626,0.1410731 3.1749374,3.1749374 0 0 0 -0.01318,0.00852 3.1749374,3.1749374 0 0 0 -0.255017,0.1666498 3.1749374,3.1749374 0 0 0 -0.0054,0.00389 3.1749374,3.1749374 0 0 0 -0.234863,0.1891284 3.1749374,3.1749374 0 0 0 -0.02868,0.026355 3.1749374,3.1749374 0 0 0 -0.198431,0.1953328 3.1749374,3.1749374 0 0 0 -0.0248,0.027905 3.1749374,3.1749374 0 0 0 -0.182151,0.2201343 3.1749374,3.1749374 0 0 0 -0.01008,0.014729 3.1749374,3.1749374 0 0 0 -0.163552,0.2418403 3.1749374,3.1749374 0 0 0 -0.02403,0.041084 3.1749374,3.1749374 0 0 0 -0.124793,0.2325378 3.1749374,3.1749374 0 0 0 -0.0248,0.055032 3.1749374,3.1749374 0 0 0 -0.101543,0.2472641 3.1749374,3.1749374 0 0 0 -0.0093,0.02713 3.1749374,3.1749374 0 0 0 -0.08061,0.2658745 3.1749374,3.1749374 0 0 0 -0.02558,0.1061937 c 5.29e-4,2.234e-4 0.001,5.557e-4 0.0016,7.409e-4 a 3.1749374,3.1749374 0 0 0 -0.007,0.033329 3.1749374,3.1749374 0 0 0 -0.03721,0.219359 3.1749374,3.1749374 0 0 0 -0.01318,0.1077415 3.1749374,3.1749374 0 0 0 -0.01628,0.2449386 3.1749374,3.1749374 0 0 0 -0.0023,0.06744 3.1749374,3.1749374 0 0 0 1.81998,2.867233 3.1749374,3.1749374 0 0 0 0.0046,0.0023 3.1749374,3.1749374 0 0 0 0.15425,0.06899 v 8.2e-4 a 3.1749374,3.1749374 0 0 0 0.0039,0.0016 3.1749374,3.1749374 0 0 0 0.244938,0.08604 3.1749374,3.1749374 0 0 0 0.06124,0.02015 3.1749374,3.1749374 0 0 0 0.213933,0.05193 3.1749374,3.1749374 0 0 0 0.102315,0.02248 3.1749374,3.1749374 0 0 0 0.203857,0.02868 3.1749374,3.1749374 0 0 0 0.110067,0.01318 3.1749374,3.1749374 0 0 0 0.255789,0.01163 3.1749374,3.1749374 0 0 0 0.262768,-0.0124 v -7.67e-4 a 3.1749374,3.1749374 0 0 0 0.0054,0 3.1749374,3.1749374 0 0 0 0.292226,-0.03953 3.1749374,3.1749374 0 0 0 0.02248,-0.0031 3.1749374,3.1749374 0 0 0 0.0047,-7.67e-4 3.1749374,3.1749374 0 0 0 0.303841,-0.07364 3.1749374,3.1749374 0 0 0 1.450259,-0.906127 3.1749374,3.1749374 0 0 0 0.0077,-0.0085 3.1749374,3.1749374 0 0 0 0.07906,-0.08449 3.1749374,3.1749374 0 0 0 7.68e-4,-0.0016 c -0.0021,7.41e-4 -0.0041,0.0016 -0.0062,0.0023 a 3.1749374,3.1749374 0 0 0 0.751851,-2.0463 3.1749374,3.1749374 0 0 0 -0.103868,-0.789845 c 5.3e-4,-1.59e-5 10e-4,1.59e-5 0.0016,0 a 3.1749374,3.1749374 0 0 0 -0.0085,-0.025579 3.1749374,3.1749374 0 0 0 -0.0016,-0.00543 3.1749374,3.1749374 0 0 0 -0.07674,-0.2464863 3.1749374,3.1749374 0 0 0 -0.01705,-0.047283 A 3.1749374,3.1749374 0 0 0 10.98897,8.373706 3.1749374,3.1749374 0 0 0 10.97734,8.358977 3.1749374,3.1749374 0 0 0 10.96804,8.347349 3.1749374,3.1749374 0 0 0 10.557204,7.9078582 a 3.1749374,3.1749374 0 0 0 -0.0186,-0.015502 3.1749374,3.1749374 0 0 0 -0.0039,-0.00389 3.1749374,3.1749374 0 0 0 -0.22401,-0.1775055 3.1749374,3.1749374 0 0 0 -0.02791,-0.020153 3.1749374,3.1749374 0 0 0 -0.228659,-0.1457244 3.1749374,3.1749374 0 0 0 -0.03566,-0.020925 3.1749374,3.1749374 0 0 0 -1.56109,-0.4146733 z m 0,0.3968672 a 2.7780703,2.7780703 0 0 1 0.0093,7.408e-4 c -0.0019,0.048629 -0.0093,0.095812 -0.0093,0.1449465 0,0.3910729 0.04994,0.7701075 0.134872,1.1355428 C 8.152114,9.1595093 7.602718,9.4061226 6.997839,9.4718967 7.168252,8.7490163 7.509983,8.0949528 7.97527,7.5488106 a 2.7780703,2.7780703 0 0 1 0.196106,-0.024804 2.7780703,2.7780703 0 0 1 0.08449,-0.010075 2.7780703,2.7780703 0 0 1 0.201532,-0.00775 z m 0.403852,0.032554 a 2.7780703,2.7780703 0 0 1 0.0062,0.00156 2.7780703,2.7780703 0 0 1 0.265081,0.052707 2.7780703,2.7780703 0 0 1 7.67e-4,0 2.7780703,2.7780703 0 0 1 7.67e-4,0 2.7780703,2.7780703 0 0 1 0.265081,0.08139 2.7780703,2.7780703 0 0 1 0.0093,0.00309 C 9.287531,7.9609994 9.126561,8.2231698 8.92863,8.4534322 8.88298,8.1926137 8.85422,7.9259692 8.85422,7.6519721 c 0,-0.038313 0.0059,-0.075119 0.007,-0.1131706 z M 7.328837,7.7496178 C 6.978324,8.267926 6.720599,8.8532257 6.585505,9.4858849 6.326274,9.4784873 6.077171,9.4351627 5.839051,9.3657426 a 2.7780703,2.7780703 0 0 1 0.102315,-0.2511375 2.7780703,2.7780703 0 0 1 0.0077,-0.01628 2.7780703,2.7780703 0 0 1 0.123246,-0.2325377 2.7780703,2.7780703 0 0 1 0.0039,-0.0062 2.7780703,2.7780703 0 0 1 0.151923,-0.2271139 2.7780703,2.7780703 0 0 1 0.17518,-0.21316 2.7780703,2.7780703 0 0 1 0.0031,-0.00389 2.7780703,2.7780703 0 0 1 0.191454,-0.1906815 2.7780703,2.7780703 0 0 1 0.0093,-0.00775 2.7780703,2.7780703 0 0 1 0.20463,-0.1666498 2.7780703,2.7780703 0 0 1 0.0124,-0.00852 2.7780703,2.7780703 0 0 1 0.221685,-0.1464969 2.7780703,2.7780703 0 0 1 0.0062,-0.0031 2.7780703,2.7780703 0 0 1 0.242613,-0.1271192 2.7780703,2.7780703 0 0 1 0.03411,-0.015502 z m 2.440072,0.086813 a 2.7780703,2.7780703 0 0 1 0.0023,0.00156 2.7780703,2.7780703 0 0 1 0.235639,0.1418456 2.7780703,2.7780703 0 0 1 0.198431,0.14805 2.7780703,2.7780703 0 0 1 0.02403,0.017825 2.7780703,2.7780703 0 0 1 0.0023,0.00233 2.7780703,2.7780703 0 0 1 0.179053,0.1635516 2.7780703,2.7780703 0 0 1 0.02325,0.021706 2.7780703,2.7780703 0 0 1 0.0016,0.00233 2.7780703,2.7780703 0 0 1 0.133321,0.1480499 2.7780703,2.7780703 0 0 1 0.05503,0.063562 2.7780703,2.7780703 0 0 1 0.103093,0.1402978 2.7780703,2.7780703 0 0 1 0.05968,0.084488 2.7780703,2.7780703 0 0 1 0.116268,0.1992061 2.7780703,2.7780703 0 0 1 0.01938,0.033329 2.7780703,2.7780703 0 0 1 7.67e-4,0.00233 2.7780703,2.7780703 0 0 1 0.09457,0.2054079 2.7780703,2.7780703 0 0 1 0.02015,0.044957 2.7780703,2.7780703 0 0 1 0.0016,0.00465 2.7780703,2.7780703 0 0 1 0.06201,0.1813789 2.7780703,2.7780703 0 0 1 0.03023,0.089914 C 10.564945,9.6184835 10.043594,9.8425151 9.605373,10.173449 9.355217,9.7905255 9.162231,9.3683646 9.034096,8.9177352 9.345663,8.611486 9.594737,8.2437489 9.768935,7.8364308 Z M 8.70467,9.1998548 C 8.847817,9.6399805 9.048463,10.054098 9.300764,10.431519 8.812935,10.899293 8.463851,11.510284 8.325662,12.198028 7.872281,12.120888 7.442288,11.978325 7.044389,11.779465 6.93379,11.383154 6.869987,10.967237 6.869987,10.535366 c 0,-0.22522 0.02163,-0.444597 0.05271,-0.6611809 0.666684,-0.049489 1.278812,-0.292597 1.781987,-0.6743567 z M 5.732929,9.7424516 c 0.252127,0.074968 0.514657,0.1250449 0.788284,0.1371944 -0.02823,0.215099 -0.04806,0.433009 -0.04806,0.65573 0,0.333157 0.03473,0.658483 0.09689,0.973542 C 6.258265,11.303661 5.977732,11.057177 5.725907,10.784159 a 2.7780703,2.7780703 0 0 1 0,-7.67e-4 2.7780703,2.7780703 0 0 1 -0.02713,-0.199206 2.7780703,2.7780703 0 0 1 -0.01085,-0.08836 2.7780703,2.7780703 0 0 1 -0.0085,-0.211607 2.7780703,2.7780703 0 0 1 0.01395,-0.27749 2.7780703,2.7780703 0 0 1 0.03953,-0.2643186 z m 5.475444,0.1790533 a 2.7780703,2.7780703 0 0 1 0.02325,0.2635411 2.7780703,2.7780703 0 0 1 0.0039,0.09922 2.7780703,2.7780703 0 0 1 -0.280585,1.207667 2.7780703,2.7780703 0 0 1 -0.0093,0.02093 c -0.423152,-0.27805 -0.798695,-0.621499 -1.109997,-1.019319 0.39274,-0.297915 0.861704,-0.4987824 1.372737,-0.5720441 z M 9.536424,10.750878 c 0.34038,0.431395 0.752487,0.800719 1.214599,1.100672 a 2.7780703,2.7780703 0 0 1 -7.67e-4,0.0016 2.7780703,2.7780703 0 0 1 -0.112393,0.147272 c -0.480051,0.169473 -0.993994,0.268203 -1.53241,0.268203 -0.130165,0 -0.257818,-0.0088 -0.385226,-0.01938 0.121402,-0.580088 0.41126,-1.09665 0.816197,-1.498306 z M 6.0051,11.584934 c 0.220338,0.176307 0.455551,0.335009 0.705339,0.471267 0.05921,0.185768 0.130701,0.365779 0.210834,0.541036 a 2.7780703,2.7780703 0 0 1 -0.0023,-0.0016 2.7780703,2.7780703 0 0 1 -0.210059,-0.1558 2.7780703,2.7780703 0 0 1 -0.0124,-0.0093 A 2.7780703,2.7780703 0 0 1 6.492657,12.245282 2.7780703,2.7780703 0 0 1 6.306627,12.039099 2.7780703,2.7780703 0 0 1 6.142303,11.815863 2.7780703,2.7780703 0 0 1 6.005108,11.584876 Z m 1.213038,0.709228 c 0.335062,0.136597 0.688406,0.234578 1.054952,0.29609 -0.0073,0.09059 -0.01395,0.181164 -0.01395,0.273626 0,0.06387 0.0048,0.126241 0.0085,0.189129 a 2.7780703,2.7780703 0 0 1 -0.0039,-7.67e-4 2.7780703,2.7780703 0 0 1 -0.734839,-0.153474 2.7780703,2.7780703 0 0 1 -0.0031,-7.68e-4 C 7.408628,12.705917 7.304844,12.504862 7.218071,12.294178 Z m 2.802147,0.283681 a 2.7780703,2.7780703 0 0 1 -0.0016,0.0016 2.7780703,2.7780703 0 0 1 -0.230988,0.140301 2.7780703,2.7780703 0 0 1 -0.0047,0.0031 2.7780703,2.7780703 0 0 1 -0.0023,7.67e-4 2.7780703,2.7780703 0 0 1 -0.211607,0.103093 2.7780703,2.7780703 0 0 1 -0.05193,0.02248 2.7780703,2.7780703 0 0 1 -0.203858,0.07441 2.7780703,2.7780703 0 0 1 -0.05736,0.0186 2.7780703,2.7780703 0 0 1 -0.191454,0.04961 2.7780703,2.7780703 0 0 1 -0.08604,0.01938 2.7780703,2.7780703 0 0 1 -0.178278,0.02635 2.7780703,2.7780703 0 0 1 -0.132546,0.01628 c -0.005,-0.06307 -0.01163,-0.12545 -0.01163,-0.189906 0,-0.07435 0.0055,-0.147172 0.01085,-0.220134 0.144825,0.01261 0.290666,0.02171 0.438724,0.02171 0.313075,0 0.618557,-0.03055 0.914646,-0.08759 z"
     color="#363636"
     fill="#000000"
     opacity="0.15"
     stroke-width="0.396867"
     id="path1375" />
</svg>
